<svg xmlns="http://www.w3.org/2000/svg" viewBox="120 40 1200 1200">
  <path fill="#04d2f7" d="M1144.94 710.65q1.81-.1 2.22 1.13a1.18 1.18 0 0 1-.22 1.12l-2.04 2.47q-.32.38-.35.88-.16 2.62-1.94 4.58a1.31 1.28 67.5 0 0-.32.8c-.16 5.18-4.26 9.5-8.59 11.73a.58.58 0 0 0-.29.29l-8.15 15.73q-.24.47-.24 1c-.02 2.11-3.41 5.82-5.01 7.12a1.56 1.54 79.4 0 0-.54.8q-1.11 3.78-2.17 5.24-4.38 6.04-6.4 13.16-.36 1.24-1.48 3.21-.8 1.4-1.41 3.36-1.41 4.5-5.42 8.01-.37.33-.46.82-.46 2.44-2.35 5.37c-3.62 5.6-5.59 14.63-8.41 21.69-.61 1.52-1.72 2.28-2.95 3.25q-.37.3-.27-.17.07-.38.43-.56.52-.26.77-.79 2.18-4.68 2.93-9.83a.98.97-71.9 0 0-.5-1q-.89-.46-1.61-.11c9.37-19.03 18.67-38.17 28.91-56.75q8.8-15.96 17.15-32.18 1.55-3.02 8.71-10.37Z"/>
  <path fill="#04d2f7" d="M459.04 810.78c8.93 23.41 17.18 47.71 30.57 69.24-4.07-.42-5.04 2.3-8.5 2.68q-.49.05-.84.4-2 2.01-4.49 2.36l-2.06-3.42c1.67.08 2.01-1.27 1.54-2.62q-2.58-7.42-5.97-14.48c-1.05-2.19-1.75-5.31-3.62-8.12q-2.25-3.38-3.41-8.91l3.22 6.09a.85.85 0 0 0 1.27.27c2.55-1.99-.19-8.17-.98-10.85-1.65-5.61-4.49-10.74-5.85-16.76a1.23 1.22-80.1 0 0-.53-.76c-3.37-2.19-2.63-4.42-4.37-7.39-1.95-3.3-1.74-5.74-5.25-8.36q-.49-.36-.78.17-.82 1.51-.75 4l-2.7-6.66q-.16-.41-.6-.41h-1.19a1.86 1.46 68.3 0 0-.84 2.84q.68.96.45 3.04c-1.95-2.51-.83-4.89-3.48-6.86 2.17-.94 5.74-1.27 7.02-3.18q.27-.41.76-.41 4.43-.02 7.16 3.24c1.19 1.41 1.5 4.41 4.22 4.86Z"/>
  <path fill="#04d2f7" d="M633.36 684.74q1.11.85 1.55 2.18.14.41-.06.79-2.23 4.28-7.06 5.43-.32.08-.48-.21l-.68-1.26 6.73-6.93Z"/>
  <path fill="#04d2f7" d="M988.37 879.21q1.57 13.55 4.87 26.84-2.4.15-1.98 2.22a1.37 1.35-35.4 0 1-.17.96q-3.29 5.36-4 10.52-1.67 12.03-3.29 19.33a1.33 1.32-11.2 0 1-.55.82l-4.55 3.11q-.79 1.1-2.99 1.83-2.44.81-3.23 1.17c-28.77 13.09-57.79 25.65-86.4 39.09q-12.29 5.77-25.41 9.78a1 1 0 0 0-.7.99q.23 6.61.38 13.42c.4 18.06-9.6 34.7-25.99 42.33-7.81 3.63-15.16 3.19-23.69 1.95q-15.64-2.27-25.38-14.61-1.05-1.33-2.26-2.51a.74.73 51.1 0 0-.89-.1c-8.78 5.35-16.05 7.94-24.49 11.53q-6.02 2.56-13 6.37c-21.37 11.65-42.71 20.97-61.93 32.32l-1.83-.31q-.49-.08-.94.15l-47.14 24.33a.61.6-59.5 0 1-.3.08q-1.48.02-2.36 1.14-.34.43-.87.56c-3.28.8-7.13 4.68-10.21 4.47q-.49-.03-.88.28c-3.24 2.57-7.35 4.52-11 6.42q-20.78 10.81-41.92 20.85c-2.69 1.28-4.34 2.47-6.31-.29q-2.15-3.01-1.35-6.69a1.17 1.13-57.7 0 0-.19-.92c-.85-1.16-.36-5.23-1.02-7.28l105.27-55.92a.79.79 0 0 0 .13-1.31 278.77 278.77 0 0 1-38.4-38.12q-10.67-12.74-21.83-25.09-.36-.4.08-.7c6.62-4.52 11.57-2.02 15.76 3.87 12.09 16.99 27.72 33.33 41.62 47.38 3.58 3.63 8.11 6.38 12.21 9.53a1.48 1.47-40.2 0 0 1.61.13c17.4-9.3 34.66-19.08 52.49-27.63q22.84-10.96 45.29-22.71c1.64-.86 2.7-2.29 2.07-4.09q5.47-5.58 7.25-13.31.14-.58.73-.64.77-.08.48-1.17-.11-.41-.49-.62l-1.83-1.02q3.6-2.24 4.43-4.2c9.15-21.61 37.33-26.46 57.15-18.08 2.76 1.17 6.52 5.98 9.01 5.01 18.11-7.02 35.53-16.76 53.22-24.91 16.93-7.78 33.68-16.11 50.86-23.33 7.95-3.35 16.17-6.1 23.64-10.53a1.37 1.37 0 0 0 .62-1.53q-3.18-11.54-5.18-23.4c-4-23.69-8.49-47.29-12.59-70.97q-2.04-11.8-6.68-32.98l3.43-4.38q.66-.85.72.22l.04.8q.02.43.45.43l3.05-.02q.22-.01.25-.22l.04-.27a.1.1 0 0 1 .18-.04q1.17 1.96 3.52 1.78.31-.03.15-.29l-.15-.25a.15.15 0 0 1 .15-.22q.38.04.66.29.17.15.24.46.37 1.7 1.22 3.2.22.4.2.86-.06 1.07.78 1.68.88.63.72-.44-.02-.15.01-.31.08-.54.38-.08l1.12 1.77q.2.31-.17.37l-.26.05q-.07.01-.08.08-.27 5.09 1.81 9.55c2.42 5.18 2.72 11.42 2.96 17.06q.08 1.99.95 4.51c.92 2.71.93 5.49 1.51 8.01 1.49 6.46 1.51 13.33 2.17 19.94q.05.5.35.91c.21.28.43.52.53.85q2.93 10.42 4.53 18.17.49 2.35 2.67 1.47.22-.09.26.15l.08.61q.04.3.1 0 .08-.45.48-.51Z"/>
  <path fill="#04d2f7" d="m531 704.34-88.52-7.58q-.74-.24.42-1.15.38-.3.87-.29 19.37.35 38.55 3.06c9.61 1.36 18.05 1.85 27.16 2.38q.41.02 2.81.57c1.43.33 2.64-.13 3.94-.02q6.82.59 13.66.42 1.2-.03 1.54.54.46.77-.43 2.07Z"/>
  <path fill="#05b5d2" d="M441.01 682.12c15.3 1.69 30.21 2.74 45.89 4.74 14.45 1.83 28.88 2.8 43.43 4.18 9.37.89 18.73.98 28.09 1.98q6.65.72 13.34 1.12-.85.05-1.23 1.37-.16.55-.72.59-7.85.55-15.44-.29c-2.34-.26-4.93-1.95-7.36-1.79q-12.36.86-24.46-1.46c-7.82-1.5-15.39-.29-22.93-1.98-5.87-1.32-11.46-1.29-17.28-2.36-8.2-1.52-15.86.19-24.19-1.32q-6.77-1.24-13.57-1.35-9.59-2-14.07-1.25c-3.71.62-5.47-.58-8.34-.74q-1.83-.09-3.74-.28 10.75.43 21.32.64.85.02 1.26-1.8Z"/>
  <path fill="#05b5d2" d="M459.04 810.78c-2.72-.45-3.03-3.45-4.22-4.86q-2.73-3.26-7.16-3.24-.49 0-.76.41c-1.28 1.91-4.85 2.24-7.02 3.18q-1.03-.72-2.05.83c-.69 1.03-.35 3.64.18 5.05q2.17 5.85 4.14 11.76c.4 1.19 1.32 2.18 1.68 3.24q2.12 6.31 4.42 12.56c3.05 8.3 7.99 16.94 11.32 25.05l8.44 20.5q.19.46.67.59 3.29.91 7.1-.39 2.49-.35 4.49-2.36.35-.35.84-.4c3.46-.38 4.43-3.1 8.5-2.68 8.39-6.94 22.03-4.38 32.33-4.74q1.3.76 3.05.29.48-.12.94.05l4.3 1.65c1.16.45.83 1.35 1.36 1.97q.49.59 1.22.57 5.29 7.32 10.63 14.5 1.47 1.98 5.6 10.44-2.06 7.34-.67 15.83l.18 4.77q.01.52.44.81 2.53 1.73 4.51 2.33 19.62 5.92 45.51 12.23c11.91 2.9 27.01 9.65 40.72 13.4q32.27 8.85 64.08 19.24c13.53 4.43 27.5 8.25 41.4 12.61q2.02 2.61 5.15 2.35l3.32-.28 3.51.09c1.17 4.9 7.45 4.57 11.91 4.91 3.68.29 4.85 1.91 7.19 4.41q1.13 1.2 2.55.49l1.83 1.02q.38.21.49.62.29 1.09-.48 1.17-.59.06-.73.64-1.78 7.73-7.25 13.31c-9.81-5.23-22.42-6.72-33.2-10.26q-18.16-5.96-36.57-11.1c-13.47-3.77-25.34-7.92-37.94-12.32-18.21-6.35-37.2-10.91-55.68-16.62-13.94-4.3-30.08-8.07-44.85-13.47-8.98-3.29-15.22-6.69-21.27-13.22a.9.89-52.6 0 0-1.45.2c-6.78 13.22-20.72 19.38-35.2 17.58-2.59-.32-5.04-1.54-7.53-2.36a1.5 1.5 0 0 0-1.74.62 49.92 49.92 0 0 0-5.2 10.94q-12.48 36.51-22.05 73.88c-3.82 14.9-8.97 30.8-12.32 46.62-.56 2.69-.64 5.52-1.07 8.34q-1.18 1.38.26 4.26c-2.21.79-3.99 1.48-5.6 3.33-5.17 5.92-8.54 7.91-13.79 11.43-5.42 3.62-4.02 14.38-7.47 16.41q-1.85 1.09-4.72-.08 1.85-1.2 3.46-1.41.48-.07.47-.56c-.05-1.88.04-3.29 1.2-4.9.96-1.33.78-3.89 1.68-4.55a1.5 1.46-11.6 0 0 .54-.8c.62-2.48 1.73-8.91.98-11.63q-.05-.18-.15-.02-.3.48-.68.96-.02.03-.06.03l-.28-.01a.18.18 0 0 0-.18.18q-.03 4.13-1.35 8a.45.45 0 0 1-.87-.04c-.55-2.23.78-6.35-.51-7.76q7.79-28.47 16.45-56.87c.82-2.67 1.3-6.1 2.17-8.96 9.52-31.34 18.01-64.71 28.32-97.11a1.74 1.74 0 0 0-1.17-2.19c-12.63-3.72-10.41-18.66-9.04-28.39q.49-3.5-2.93-4.38L430 899.94q-.5-1.65.59-2.58c2.37-2.05 4.36-4.68 6.53-6.98a.15.15 0 0 0-.2-.22q-.1.08-.23.11a.11.1-72.4 0 1-.09-.18c1.06-.94 1.93-2 3.37-2.34 3.79-.88 7.52-.85 8.63-5.55l14 4.26a.9.9 0 0 0 1.16-.87c-.03-2.34.26-4.71-.59-6.98-8.68-23.18-19.99-44.4-29.21-67.02-1.88-4.59 1.33-5.78 2.82-9.21q6.5 1.09 11.71-3.05l5.72-.58a1.61 1.6 79.2 0 1 1.7 1.16l3.13 10.87Z"/>
  <path fill="#05b5d2" d="M918.09 516.97q1.94 10.21 4.51 20.25 9.23 36.11 15.96 72.77 3.36 18.3 10.96 35.29.56 1.25.98 1.65a1.64 1.64 0 0 0 2.55-.37c2.99-5.21 6.7-10.29 9.29-15.3q20.8-40.24 42.34-80.09l.54.44q.43.37.85-.02l.94-.88a.15.14 72.3 0 1 .24.13l-.07.48q-.04.3.25.2l.25-.08q.48-.16.17.24c-1.79 2.26-2.02 4.94-3.26 7.02-1.67 2.81-3.61 4.91-4.92 8.02q-1.5 3.55-4.64 8.8-.92 1.55-3.15 7.24c-.86 2.18-2.85 3.8-3.62 6.27-2.33 7.52-7.22 12.42-10.61 19.26q-.22.45.27.33.84-.2 1.17-.82 2.1-3.94 4.84-6.83c2.42-2.57 3.22-5.89 4.96-8.89q2.31-4 3.32-6.31 1.45-3.34 2.99-6.64a.06.05-74.4 0 0-.03-.07l-.25-.09q-.12-.04-.05-.14 2.01-3.07 3.04-6.61.14-.46.51-.15.41.35.78-.12c1.5-1.91 2.17-4.87 4.25-7.24q3.6-4.1 5.68-9.18c.5-1.22 1.36-1.86 2.23-2.77q.33-.34.43-.81.35-1.64 1.95-2.33.44-.19.74-.57c1.91-2.46 3.89-6.39 7.7-5.57q.32.07.45-.23.08-.18-.01-.32-.06-.1.04-.04 2.84 1.59 4.58 1.42c-18.97 38.89-39.45 76.88-59.52 115.2-.81 1.55-.6 3.37 1.15 3.96 13.6 4.56 21.33 13.9 25.19 27.75q.14.49.59.74 1.54.81 3.29.82l.08 1.75q.02.49.47.66l1.78.69q.95.37-.07.37h-1.17a.5.49 71.1 0 0-.39.8l2.14 2.77q.33.44.28.99-.11 1.1.77 1.51.48.22.77.66c1.17 1.8 1.13 2.94.66 4.95q-.26 1.13.83 2.02a.67.01 72.2 0 1 .21.61q.38 1.17 2.77 1.65l-13.24 2.26a1.4 1.4 0 0 0-1.04.82c-3.65 8.54-9.29 15.97-17.86 20.05-3.57 1.7-6.72 2.52-9.74 5.29q-.39.36-.29.89 1.19 6.23 1.85 12.53c2.11 19.96 5.69 39.65 9.98 59.25 4.77 21.78 8.2 43.9 11.64 65.91q-.4.06-.48.51-.06.3-.1 0l-.08-.61q-.04-.24-.26-.15-2.18.88-2.67-1.47-1.6-7.75-4.53-18.17c-.1-.33-.32-.57-.53-.85q-.3-.41-.35-.91c-.66-6.61-.68-13.48-2.17-19.94-.58-2.52-.59-5.3-1.51-8.01q-.87-2.52-.95-4.51c-.24-5.64-.54-11.88-2.96-17.06q-2.08-4.46-1.81-9.55.01-.07.08-.08l.26-.05q.37-.06.17-.37l-1.12-1.77q-.3-.46-.38.08-.03.16-.01.31.16 1.07-.72.44-.84-.61-.78-1.68.02-.46-.2-.86-.85-1.5-1.22-3.2-.07-.31-.24-.46-.28-.25-.66-.29a.15.15 0 0 0-.15.22l.15.25q.16.26-.15.29-2.35.18-3.52-1.78a.1.1 0 0 0-.18.04l-.04.27q-.03.21-.25.22l-3.05.02q-.43 0-.45-.43l-.04-.8q-.06-1.07-.72-.22l-3.43 4.38c-4.27-16.31-6.84-34.77-11.53-52.64-1.05-3.97-3.75-4.79-7.03-2.46l-6.41-.48q-.52-.04-.86-.44-1.96-2.29-3.42-2.48-8.93-11.18-12.75-24.25l.46-6.38a1.07 1.07 0 0 0-1.16-1.14c-2.31.2-4.47.59-6.84.36-5.39-.53-11.4-.05-16.03-.25-5.85-.26-11.14-.58-17.4-.24-5.3.28-11.1-.33-15.75-.34q-4.35-.02-8.71-.27-.54-.03-.68-.55-.2-.72-.93-.73a1.12.07 1.9 0 0-.78.02q-.26.04-.49-.09-.2-.12.03-.14l2.98-.23 67.75-1.93a1.96 1.95 9 0 0 1.78-1.29q2.79-7.61-3.3-12.72l-.25-2.9q-.04-.46-.43-.71l-2.81-1.76q-.42-.26-.61-.71-.65-1.55-2.43-1.93c-4.21-.9-7.19-3.78-10.08-5.54-4.07-2.49-7.98-4.48-11.97-7.38q-5.08-3.7-10.75-6.75-1.71-.93-1.12-2.79l1.14-3.63q.15-.44.57-.25 2.11.95 4.54.88 12.47 8.62 25.73 15.8 7.23 3.92 13.08 9.18a.79.78-57.1 0 0 1.24-.27q3.81-8.53 12.38-12.1c2.51-1.04 2.19-3.31 1.47-5.63-7.27-23.32-10.96-41.02-16.62-68.62l1.08.26q.53.12.8-.35l2.15-3.7a1.04 1.04 0 0 0-.02-1.07q-2.13-3.41-.15-6.71.22-.38.65-.42 1.83-.21 2.86 1.31.29.43.81.42c2.86-.08 2.07 4.76 4.98 6.31a.43.42-83 0 0 .61-.48c-1.12-4.4-.94-8.87-1.88-12.93-1.27-5.44-3.29-11.35-3.11-16.95.13-4.1.13-7.87-1.8-10.49-1.78-2.41-2.34-2.82-2.79-5.9-.19-1.25-.93-2.45-1.25-3.47-1.82-5.8-3.5-10.26-2.65-17.02q.05-.4.43-.51l2.04-.57Z"/>
  <path fill="#05b5d2" d="M949.91 475.3q2.56.22 4.13 2.88l-4.13-2.88Z"/>
  <path fill="#06a0c4" d="M1095.95 401.47q-1.32 1.88-2.25 4.72-1.05 3.21-1.89 4.86c-17.12 33.77-31.88 68.53-48.93 102.36q-.76 1.5-1.54 4.12-3.8.42-4.47-3.58-.07-.41-.36-.7-1.32-1.3-.75-3.03a1.02 1.02 0 0 0-.17-.95c-2.83-3.62-1.09-6.27.07-9.76q.65-1.96 1.43-3.46c1.55-2.98 1.65-6.4 3.02-9.16q1.6-3.22 3.4-6.34a1.7 1.64 60.2 0 0 .22-.87c-.14-5.72 3.83-6.45 5.5-11.41q.13-.4-.02-.78-.54-1.36.56-2.25c3.29-2.67 7.25-9.57 7.65-13.94q.04-.5.4-.85 3.06-2.99 3.98-6.41c1.26-4.71 5.51-11.09 8.16-15.29 1.87-2.95 2.83-6.58 4.92-9.7a.8.78-46.3 0 0-.01-.88q-1.13-1.66-2.63-2.47 2.81-4.77 2.13-8.44-.41-2.26-2.61-1.57l-12.42 3.94q-.06-.8.17-1.44.16-.47.08-.96-.22-1.4-1.48-1.82-.56-.19-.51-.78c.34-4.19 4.71-11.35 8.89-10.96 4.02.37 5.9-1.22 8.7-1.58q4.95-.64 9.85.4c1.5.32 3.2 1.55 5.49 1.24q.46-.06.83.22 1.73 1.34 3.53 2.37.38.21.32.63l-.26 1.9q-.06.44.35.61 1.61.7.65 2.01Z"/>
  <path fill="#06a0c4" d="M411.44 639.61q.84.41 1.43 1.12.3.35.01.71-2.69 3.47-6.55 5.4-.4.2-.7.54l-3.05 3.52a3.03 3.01 66.3 0 0-.75 1.94l-.12 7.5-2.38 1.36q-1.29-4-.91-8.77.04-.47.31-.78l.23-.25q.19-.19.33-.42l3.17-5.07 8.98-6.8ZM1168.12 650.04l5.29-.42q4.3 8.9 10.63 16.75c-11.34 2.55-23.39 6.22-33.77 8.63q-50.06 11.65-81.03 20.46-40.58 11.55-62.17 16.75-2.39-.48-2.77-1.65a.67.01 72.2 0 0-.21-.61q-1.09-.89-.83-2.02c.47-2.01.51-3.15-.66-4.95q-.29-.44-.77-.66-.88-.41-.77-1.51.05-.55-.28-.99l-2.14-2.77a.5.49 71.1 0 1 .39-.8h1.17q1.02 0 .07-.37l-1.78-.69q-.45-.17-.47-.66l-.08-1.75q5.38.02 9.13-.94 76.84-19.78 102.18-27.08c17.84-5.13 30.82-9.4 45.69-12.08q6.66-1.21 13.18-2.64Z"/>
  <path fill="#06a0c4" d="M418.43 683.28q1.91.19 3.74.28c2.87.16 4.63 1.36 8.34.74q4.48-.75 14.07 1.25l-17.36.03q-.52 0-.99.23-1.8.87-3.1-.7-.32-.39-.82-.34c-1.81.16-3.28.62-5.09.21q-6.61-1.51-13.35-1.66c-4.49-.1-9.51 3.44-13.17 5.87a.8.8 0 0 0 .28 1.45l5.98 1.27q.47.1.55.58l.3 2.01q.03.2.2.09.37-.22.51.07c-1.12 2.83 3.9 13.09 5.91 16.73 6.63 11.98 13.4 23.83 19.37 36.16l16.89 34.92q-2.07 1.93-4.36-2.98-1.07-2.31-2.35-4.56-.23-.41-.23.06v.4a.07.07 0 0 1-.13.03l-7-12.9q-.15-.26-.45-.27h-.33q-.37.01-.52-.33-2.05-4.47-4.07-8.95-1.27-2.81-2.59-3.94-.38-.33-.58-.79c-.96-2.16-3.36-4.79-2.91-7.74q.07-.49-.16-.94c-1.97-3.79-5.11-7.27-6.7-10.6q-1.75-3.65-2.81-7.58c-.46-1.69-1.76-3.12-1.97-5.04-.37-3.43-1.14-5.09-2.2-7.94-.55-1.47-1.84-2.72-1.88-4.8a1.4 1.4 0 0 0-.24-.75c-1.5-2.22-3.38-6.23-5.45-7.52-3.07-1.92-6.4-.67-6.8 3.17q-2.48-1.91-1-4.47a1.34 1.29 1 0 1 .57-.53q2.69-1.34 1.68-4.46a.74.72 60.5 0 1 .2-.76c3.11-2.82 6.73-4.11 9.88-6.72 1.24-1.02 4.38-.89 6.28-.54q6.99 1.28 13.86 2.26Z"/>
  <path fill="#06a0c4" d="m448.24 814.32 14.02 33.59q1.16 5.53 3.41 8.91c1.87 2.81 2.57 5.93 3.62 8.12q3.39 7.06 5.97 14.48c.47 1.35.13 2.7-1.54 2.62-2.98-5.01-4.88-10.85-8.21-15.49-1.73-2.4-2.05-5.39-3.16-7.64l-5.1-10.32c-2.56-5.18-4.24-11.31-6.71-16.9q-3.98-9.01-7.18-18.56.23-2.08-.45-3.04a1.86 1.46 68.3 0 1 .84-2.84h1.19q.44 0 .6.41l2.7 6.66Z"/>
  <path fill="#06a0c4" d="m895.86 304.12-21.54 67.11q-.93.77-1.92-.81c-1.11-1.78-4.75-3.89-5.88-4.37q-5.16-2.18-6.87-7.47c.96-2.23 1.17-4.64 2.03-6.68q6.18-14.71 11.86-29.68.72.85 1.58 1.02.52.1.79-.34 2.27-3.61 4.25-7.34c2.28-4.28 3.31-9.93 4.42-14.68q.1-.43.54-.38 2.71.34 2.66-2.4 0-.47.39-.72c1.72-1.08 1.62-2.77 2.43-4.13 3.57-6.06 3.92-8.92 4.37-15.92q.03-.47.32-.85l3.71-4.75a.56.55-49.4 0 1 .82-.07c1.66 1.57 2 3.55 1.17 5.81q-2.55 6.95-4.15 14.19c-.42 1.89-1.89 3.45-1.83 5.84a2.07 2.05 57.5 0 1-.2.93q-2.82 5.84 1.05 5.69Z"/>
  <path fill="#078ba9" d="M1135.29 377.06q1.53.63 3.91 1.05c2.16.39 3.85 1.6 4.35 3.63q1.58 6.53 3.03 9.84-20.07 6.7-40.64 10.11-2.81.46-9.99-.22.96-1.31-.65-2.01-.41-.17-.35-.61l.26-1.9q.06-.42-.32-.63-1.8-1.03-3.53-2.37-.37-.28-.83-.22c-2.29.31-3.99-.92-5.49-1.24q-4.9-1.04-9.85-.4c-2.8.36-4.68 1.95-8.7 1.58-4.18-.39-8.55 6.77-8.89 10.96q-.05.59.51.78 1.26.42 1.48 1.82.08.49-.08.96-.23.64-.17 1.44c-19.81 5.49-40.25 8.33-60.38 12.46q-28.77 5.92-57.96 9.41c-2.93.35-16.16 2.02-18.51 5.31-3.1 4.34.43 8.3 4.09 10.62 17.34 11.03 34.12 23.15 51.87 33.47 14.11 8.19 27.65 17.28 41.83 25.41 3.15 1.8 5.4 3.04 7.31-1.34 13.41-30.66 29.66-59.49 44.65-89.27q1.5.81 2.63 2.47a.8.78-46.3 0 1 .01.88c-2.09 3.12-3.05 6.75-4.92 9.7-2.65 4.2-6.9 10.58-8.16 15.29q-.92 3.42-3.98 6.41-.36.35-.4.85c-.4 4.37-4.36 11.27-7.65 13.94q-1.1.89-.56 2.25.15.38.02.78c-1.67 4.96-5.64 5.69-5.5 11.41a1.7 1.64 60.2 0 1-.22.87q-1.8 3.12-3.4 6.34c-1.37 2.76-1.47 6.18-3.02 9.16q-.78 1.5-1.43 3.46c-1.16 3.49-2.9 6.14-.07 9.76a1.02 1.02 0 0 1 .17.95q-.57 1.73.75 3.03.29.29.36.7.67 4 4.47 3.58 2.28 3.22 4.12 4.78c21.01 17.68 45.36 33.09 67.35 50.81 20.85 16.8 40.9 32.75 59.83 51.23q1.16 12.01.77 25.27l-5.29.42c-.29-5.36-4.01-9.11-7.1-12.05-8.39-7.98-16.69-15.71-25.8-23.16q-38.35-31.38-78.06-61.02-12.46-9.29-23.34-20.21a.36.36 0 0 0-.57.08l-6.01 10.63q-1.74.17-4.58-1.42-.1-.06-.04.04.09.14.01.32-.13.3-.45.23c-3.81-.82-5.79 3.11-7.7 5.57q-.3.38-.74.57-1.6.69-1.95 2.33-.1.47-.43.81c-.87.91-1.73 1.55-2.23 2.77q-2.08 5.08-5.68 9.18c-2.08 2.37-2.75 5.33-4.25 7.24q-.37.47-.78.12-.37-.31-.51.15-1.03 3.54-3.04 6.61-.07.1.05.14l.25.09a.06.05-74.4 0 1 .03.07q-1.54 3.3-2.99 6.64-1.01 2.31-3.32 6.31c-1.74 3-2.54 6.32-4.96 8.89q-2.74 2.89-4.84 6.83-.33.62-1.17.82-.49.12-.27-.33c3.39-6.84 8.28-11.74 10.61-19.26.77-2.47 2.76-4.09 3.62-6.27q2.23-5.69 3.15-7.24 3.14-5.25 4.64-8.8c1.31-3.11 3.25-5.21 4.92-8.02 1.24-2.08 1.47-4.76 3.26-7.02q.31-.4-.17-.24l-.25.08q-.29.1-.25-.2l.07-.48a.15.14 72.3 0 0-.24-.13l-.94.88q-.42.39-.85.02l-.54-.44q6.5-12.33 14.67-23.62c1.74-2.42 1.78-4.16-.89-5.73-3.74-2.2-7.49-4.26-11.03-6.75q-26.52-18.72-53.39-36.89-1.57-2.66-4.13-2.88c-10.97-6.42-20.92-14.8-31.79-21.63-4.61-2.9-10.27 1.8-11.13 6.08q-.5 2.55 1.12 8.39c4.43 15.98 7.05 33.83 9.98 48.83l-2.04.57q-.38.11-.43.51c-.85 6.76.83 11.22 2.65 17.02.32 1.02 1.06 2.22 1.25 3.47.45 3.08 1.01 3.49 2.79 5.9 1.93 2.62 1.93 6.39 1.8 10.49-.18 5.6 1.84 11.51 3.11 16.95.94 4.06.76 8.53 1.88 12.93a.43.42-83 0 1-.61.48c-2.91-1.55-2.12-6.39-4.98-6.31q-.52.01-.81-.42-1.03-1.52-2.86-1.31-.43.04-.65.42-1.98 3.3.15 6.71a1.04 1.04 0 0 1 .02 1.07l-2.15 3.7q-.27.47-.8.35l-1.08-.26q-6.69-32.16-18.29-73.55c-1.48-5.29-2.69-12.74-4.36-19.45q-2.64-10.53-4.36-21.19a2.11 2.1-86.2 0 0-1.47-1.68c-7.99-2.4-18.53-3.17-21.32-12.83-1.49-5.16-5.82-.54-7.43 1.55q-2.2-.23-2.88-2.14a.87.87 0 0 0-.7-.56q-1.9-.24-3.52-1.15c-4.05-2.3-5.7 1.53-7.18 4.29q-1.72.56-2.82-.89l9.19-12.03a1.24 1.24 0 0 0 .25-.88q-.55-6.1-5.21-5.3l-3.28-6.85a.62.62 0 0 1 0-.52l2.1-4.64a.84.82-53.9 0 0-.13-.9q-1.55-1.74-1.93-3.63l3.07-.31q.57-.06.57-.63c-.05-14.08-.1-27.73 15.43-33.89l.97-.12q.41-.05.52.34l.49 1.77q.13.47.57.66c3.47 1.46 8.79 2.99 12.23 1.28q.44-.22.94-.21 4.72.13 7.76-3.38.32-.36.79-.43 6.82-.99 11.36 1.38 7.82 4.09 15.84 12.54c2.46 2.59 2.52 6.21 7.74 4.65 1.36 2.21 2.79 6.24 5.97 6.06q-.49 1.31-.12 2.91.11.47.56.65c6.05 2.32 14.16 1.09 20.31-.3 2.27-.52 4.05-.11 6.33-.1a.11.11 0 0 0 .04-.22l-.31-.1a.2.2 0 0 1 .04-.39c4.49-.73 8.27-2.01 12.6-2.82q5.38-1 10.45-3.07c3.14-1.28 6.51-1.29 9.76-2.43 5.74-2.01 11.04-2.91 16.49-4.91 4.14-1.52 8.36-1.01 12.71-2.64 1.65-.62 3.09-.42 4.78-.43 3.64-.01 5.51-2.48 9.41-2.11q6.56.62 12.5-2.54.44-.23.27-.7-.61-1.71.96-2.93 15-3.3 30.12-6.41 4.84-.99 12.36-1.67c10.77-.96 24.63-4.24 31.78-5.55q8.76-1.6 18.01-3.78Z"/>
  <path fill="#078ba9" d="M320.47 910.53c16.58 17.59 33.71 34.61 50.42 52.07q5.1 5.32 9.72 11.05 1.45 1.8 1.52 2.84.14 1.99-1.22.63-31.87-31.91-63.19-64.33-5.64-5.85-10.35-12.65a.59.59 0 0 1 .85-.8q6.4 4.98 12.25 11.19Z"/>
  <path fill="#078ba9" d="M353.83 706.76c-10.75 38.59-23.16 78.51-29.1 101.23-3.03 11.61-6 19.79-4.59 27.59a1.22 1.18-78.3 0 0 .49.77q3.42 2.44 5.91 5.69c3.6 4.68-1.34 11.76 6.22 13.47 6.71 1.52 14.71 2.83 18.97 3.74q30.27 6.43 60.35 13.65c10.64 2.55 24.42 5.46 36.52 9.3-1.11 4.7-4.84 4.67-8.63 5.55-1.44.34-2.31 1.4-3.37 2.34a.11.1-72.4 0 0 .09.18q.13-.03.23-.11a.15.15 0 0 1 .2.22c-2.17 2.3-4.16 4.93-6.53 6.98q-1.09.93-.59 2.58-48.56-10.17-96.28-23.75-3.07-.88-5.82-2.11a1.12 1.12 0 0 1-.64-1.19q.62-3.97.2-8c-.28-2.72.68-4.8.61-7.58-.1-3.69-2.12-6.94-1.95-11.87a.15.15 0 0 0-.3-.03q-2.08 9.96-.44 19.97c.21 1.25-.52 1.68-.51 2.78.2 16.28-11.24 20.64-23.53 27.44-1.35.75-4.05 1.37-5.83 1.55-21.57 2.22-36.82-12.1-41.33-32.24q-3.2-14.31 5.4-26.37c9.35-13.11 19.99-20.86 37-18.43q.51.07.71-.41c11.16-27.27 18.49-53.52 26.14-83.72q3.54-13.96 10.64-29.01 2.46.47 4.15 2.52c1.89 2.3 4.55.62 6.8.17q.46-.09.78-.43 3.01-3.16 8.03-2.47Z"/>
  <path fill="#078ba9" d="M425.31 1128.88c.74-7.81 2.58-14.84 4.25-22.51 1.29 1.41-.04 5.53.51 7.76a.45.45 0 0 0 .87.04q1.32-3.87 1.35-8a.18.18 0 0 1 .18-.18l.28.01q.04 0 .06-.03.38-.48.68-.96.1-.16.15.02c.75 2.72-.36 9.15-.98 11.63a1.5 1.46-11.6 0 1-.54.8c-.9.66-.72 3.22-1.68 4.55-1.16 1.61-1.25 3.02-1.2 4.9q.01.49-.47.56-1.61.21-3.46 1.41Z"/>
  <path fill="#078ba9" d="m295.5 558.25-29.29 31.56c-7.96-6.61 5.1-12.01 10.14-13.25q.48-.11.81-.48l3.88-4.29c3.9-4.67 9.01-10.65 14.46-13.54Z"/>
  <path fill="#078ba9" d="m373.32 422.9.09 9.7q-1.48-4.83-.09-9.7Z"/>
  <path fill="#08e2fb" d="M1190.75 678.25q-16.78 14.96-29.5 33.42c-10.86 15.75-18.55 34.87-27.52 51.91-13.6 25.82-26.02 52.26-39.25 78.17q-2.56 5.02-4.93 10.82c-5.96 14.57-13.16 28.96-18.71 43.27-12.81 33.04-22.86 55.09-33.16 82.22-5.34 14.09-12 28.54-15.21 39.18-7.19 23.8-19.4 47.89-25.33 70.18q-1.98 7.46-2.86 9.82-7.32-7.17-17.29-9.85c6.87-11.36 11.37-24.7 15.71-37.21 4.17-12.03 10.66-22.59 14.1-34.93 4.33-15.58 9.08-30.26 15.69-45.64 6.37-14.83 14.27-30.63 17.85-46.38a1.94 1.94 0 0 0-2.07-2.37c-6.7.61-14.7 4.53-20.97 7.04-5.87 2.36-10.7 3.25-16.84 4.34q-3 .53-2.71 4.02c1.67 20.47 1.63 41.03 1.46 61.55a1.2 1.19 89 0 1-1.14 1.19l-6.29.32a2.27 2.26 85.8 0 1-2.37-2.05l-5.33-53.37a1.31 1.31 0 0 0-1.4-1.17l-3.98.28 4.55-3.11a1.33 1.32-11.2 0 0 .55-.82q1.62-7.3 3.29-19.33.71-5.16 4-10.52a1.37 1.35-35.4 0 0 .17-.96q-.42-2.07 1.98-2.22c1.24 3.55 1.7 9.62 7.26 7.43q22.87-8.99 46.11-17.03c3.63-1.26 7.14-3.19 8.13-7.24q1.51-6.21 3.71-11.01 7.89-17.23 31.72-68.25.72-.35 1.61.11a.98.97-71.9 0 1 .5 1q-.75 5.15-2.93 9.83-.25.53-.77.79-.36.18-.43.56-.1.47.27.17c1.23-.97 2.34-1.73 2.95-3.25 2.82-7.06 4.79-16.09 8.41-21.69q1.89-2.93 2.35-5.37.09-.49.46-.82 4.01-3.51 5.42-8.01.61-1.96 1.41-3.36 1.12-1.97 1.48-3.21 2.02-7.12 6.4-13.16 1.06-1.46 2.17-5.24a1.56 1.54 79.4 0 1 .54-.8c1.6-1.3 4.99-5.01 5.01-7.12q0-.53.24-1l8.15-15.73a.58.58 0 0 1 .29-.29c4.33-2.23 8.43-6.55 8.59-11.73a1.31 1.28 67.5 0 1 .32-.8q1.78-1.96 1.94-4.58.03-.5.35-.88l2.04-2.47a1.18 1.18 0 0 0 .22-1.12q-.41-1.23-2.22-1.13 13.32-12.51 24.25-20.46 11.79-8.58 19.61-15.78.66.2 1.22.02a1.08 1.08 0 0 1 1.28 1.52q-.61 1.21-.55 2.3Z"/>
  <path fill="#08e2fb" d="M444.58 685.55q6.8.11 13.57 1.35c8.33 1.51 15.99-.2 24.19 1.32 5.82 1.07 11.41 1.04 17.28 2.36 7.54 1.69 15.11.48 22.93 1.98q12.1 2.32 24.46 1.46c2.43-.16 5.02 1.53 7.36 1.79q7.59.84 15.44.29.56-.04.72-.59.38-1.32 1.23-1.37l32.7 2.79c-.24 5.73-4.52 3.88-7.97 4.04-5.34.25-10.42-1.16-15.47-.26q-7.61 1.37-15.32.43c-2.72-.33-5.41.67-8.14.85q-.56.04-.56.6v.4q0 .51.51.56l9.16.81q.48.04.37.51-.27 1.12.31 2.67l-36.35-3.2q.89-1.3.43-2.07-.34-.57-1.54-.54-6.84.17-13.66-.42c-1.3-.11-2.51.35-3.94.02q-2.4-.55-2.81-.57c-9.11-.53-17.55-1.02-27.16-2.38q-19.18-2.71-38.55-3.06-.49-.01-.87.29-1.16.91-.42 1.15-14.86-1.54-29.82-1.99c-3.81-.11-9.25-.85-14.14-.11q-.14-.29-.51-.07-.17.11-.2-.09l-.3-2.01q-.08-.48-.55-.58l-5.98-1.27a.8.8 0 0 1-.28-1.45c3.66-2.43 8.68-5.97 13.17-5.87q6.74.15 13.35 1.66c1.81.41 3.28-.05 5.09-.21q.5-.05.82.34 1.3 1.57 3.1.7.47-.23.99-.23l17.36-.03Z"/>
  <path fill="#08e2fb" d="M841 461.64q1.1 1.45 2.82.89c-5.56 6.6-8.94 12.26-16.28 19.45-7.12 6.98-14.15 15.53-20.09 22.9-5.05 6.26-11.36 11.7-16.68 17.84q-1.44 1.66-5.33 5.27c-2.58 2.38-4.66 5.42-6.7 7.57q-11.59 12.25-23.38 24.3-1.3 1.32-2.15 3.16a.89.89 0 0 1-1.59.04l-.99-1.86q16.8-18.54 34.13-36.55c16.34-16.97 32.01-34.63 47.66-52.23q1.93-2.17 8.58-10.78Z"/>
  <path fill="#08e2fb" d="m440.69 782.47 7.8 16.86q-5.21 4.14-11.71 3.05l-.07-3.02q.61.05 1.31-.39.42-.25.35-.74c-.78-5.38-3.83-6.87-5.94-11.07-2.61-5.22-5.83-10.43-8.3-15.34q-2.88-5.74-5.88-11.42-.24-.45-.67-.73-.42-.26-.52-.49-5.7-12.93-12.57-25.29-.36-.65-1.03-2.92c-.41-1.41-1.58-2.53-2.05-3.77q-4.13-11.11-10.63-21c-.61-.93-1.83-1.39-1.88-3.01a1.51 1.49 24.5 0 0-.34-.89q-1.42-1.7-1.6-3.8c.4-3.84 3.73-5.09 6.8-3.17 2.07 1.29 3.95 5.3 5.45 7.52a1.4 1.4 0 0 1 .24.75c.04 2.08 1.33 3.33 1.88 4.8 1.06 2.85 1.83 4.51 2.2 7.94.21 1.92 1.51 3.35 1.97 5.04q1.06 3.93 2.81 7.58c1.59 3.33 4.73 6.81 6.7 10.6q.23.45.16.94c-.45 2.95 1.95 5.58 2.91 7.74q.2.46.58.79 1.32 1.13 2.59 3.94 2.02 4.48 4.07 8.95.15.34.52.33h.33q.3.01.45.27l7 12.9a.07.07 0 0 0 .13-.03v-.4q0-.47.23-.06 1.28 2.25 2.35 4.56 2.29 4.91 4.36 2.98Z"/>
  <path fill="#0d627e" d="M891.85 177.2c4.93 2.91-.95 7.91-4.13 10.53q-2.77 2.28-4.97 8.44-.18.49-.57.82l-4.32 3.63q-.35.29-.78.41-1.3.36-1.08 1.99.08.56-.33.95-2.15 1.99-3.65 4.39c-.69 1.11-2.3 2.27-2.35 4.17q-.01.44-.38.68c-1.88 1.23-5.88 3.71-5.42 6.3q.13.71-.47.32l-.38-.25q-.43-.28-.65.19l-1.27 2.68q-.23.51-.75.73c-4.91 2.12-4.98 7.68-9.86 10.75q-.38.24-.35.69l.15 1.87q.04.5-.25.92l-2.89 4.12a1.09 1.07-71.1 0 1-.92.46q-1.04-.04-1.41.81-.15.35-.48.15-.69-.45-.64-1.28a1.16 1.16 0 0 0-1.97-.89c-3.79 3.73-3.34 9.47-9.62 12.02q-.46.19-.78.58-1.2 1.5-2.84 2.49-.45.27-.74.7-3.34 4.94-8.07 8.61-.68.52-.85 1.69-.07.46-.36.81l-3.97 4.91q-.31.39-.41.88l-.21 1.09q-.1.51-.52.82-3.93 2.92-6.45 7.11c-1.34 2.22-3.35 3.73-5.24 5.69q-.66.69-.73 1.52-.03.47-.42.75-5.26 3.84-7.96 9.79c-1.7 3.75-.95 7.62 3.18 9.17q2.51.94 4.4.99c20.98 19.89 36.7 34.05 59.51 48.18q1.71 5.29 6.87 7.47c1.13.48 4.77 2.59 5.88 4.37q.99 1.58 1.92.81l8.66 13.65q.28.44.41.95l.4 1.61q.14.56.72.51c14.96-1.51 28.82 9.97 35.76 22.59-5.22 1.56-5.28-2.06-7.74-4.65q-8.02-8.45-15.84-12.54-4.54-2.37-11.36-1.38-.47.07-.79.43-3.04 3.51-7.76 3.38-.5-.01-.94.21c-3.44 1.71-8.76.18-12.23-1.28q-.44-.19-.57-.66l-.49-1.77q-.11-.39-.52-.34l-.97.12c.94-1.12 2.58-1.39 3.18-2.61q.85-1.73-1.14-3.08c-20.38-13.79-39.27-30.03-58.43-45.45-4.7-3.78-9.22-8.39-13.9-12.55q-2.52-3.89-6.92-4.12c-3.67-.2-5.68-1.71-8.24-4q.7-1.21-.27-1.84c-25.08-16.36-48.61-35.86-72.08-54.44q-4.05-3.2-5.35-7.62a1.31 1.31 0 0 0-1.94-.75c-17.74 10.74-34.81 22.28-52.23 33.43-32.25 20.66-66.1 43.82-119.06 78.64-10.32 6.79-27.85 17.68-42.77 27.39-7.62 4.97-16.16 11.32-25.33 12.73q-1.34.2-1.72 1.51c-1.17 4.03-.6 10.86 4.89 11.96 19.74 3.97 39.48 7.96 59.42 10.81q39.42 5.62 77.83 16.28c.93.26 2.09.11 3.1.17a1.13 1.09-66 0 0 .87-.35c7.41-7.7 13.01-12.39 24.01-13 11.35-.64 28.56-1.02 37.52 7.68q1.49 1.45 3.25 2.98-1.07 6.58-3.78 13.36-.15.4.01.79l.45 1.12q.16.4-.26.49l-1.21.27a.99.91-69.2 0 0-.4.2q-4.12 3.35-11.06 3.68-5.45.26-10.24 5.11-18.78 6.14-37.07 14.09-2.3 1-6.12 3.32-2.02.25-3.48-.2a1.05 1.04 89.4 0 1-.67-.66l-5.31-15.73-1.1-3.6q-.16-.51-.66-.69-6.51-2.33-15.36-4.08c-37.34-7.39-68.27-12.36-102.25-19.27q-8.18-1.66-16.04-4.52-.5-.18-.64.33c-3.45 12.5-18.73 21.14-30.82 24.37q-5.13 1.36-12.27-1.41-.52-.2-.85.25-.42.59-.59 1.46-1.59-.96-3.37-1-.48-.01-.83.32c-3.79 3.51-2.68 6.26-4.99 10.22q-.27.45-.79.43c-3.31-.11-4.61 2.04-7.08 2.78q-7.34 2.2-7.05-2.9 1.58-3.47 1.3-6.5a1.04 1.03 12.8 0 0-.5-.79c-2.33-1.38-4.92 1.01-6.23 2.77q-5.78 7.78-12.69 14.76-1.01-.26-1.48-1.31-.28-.62-.88-.28l-1.22.7a.79.73-52.5 0 1-.54.09q-2.1-.48-3.57.84-.38.34-.87.47c-3.83 1-5.49 3.48-8.7 5.25q-2.67 1.48-4.75 3.82-.35.4-.88.51l-1.47.29a.15.15 0 0 1-.17-.17l.11-.52q.2-.92-.54-.34c-3.01 2.41-4.92 5.67-8.06 7.79q-2.49 1.67-4.01 4.33c-.88 1.55-.36 3.35-2.3 4.58q-.4.26.01.5 1.02.6 1.22 1.89.02.12.11.15l.24.08q.05.02.04-.03l-.1-.72q-.11-.84.25-.08 1.43 3.02 2.03 6.28.08.46.54.36 1.13-.24 2.01-1.02.1-.08.22-.09.21-.01.31.05.11.05.03.14l-2.92 3.01q-.3.31-.73.42-.84.22-.99 1.05-.09.5-.45.86-1.67 1.65-1.78 3.51l-29.01 31.24c-5.45 2.89-10.56 8.87-14.46 13.54-3.14-.46-2.08 3.84-5.71 2.77q-.59-.18-1.11.16l-6.9 4.6a.55.55 0 0 1-.68-.86l2.18-2.06q.31-.29-.06-.51l-.3-.18q-.27-.16-.11-.43l.21-.35q.35-.6-.31-.81l-.57-.18q-.24-.07-.21-.33.06-.5-.11-.93c3.69-4.35 7.84-8.48 11.19-12.86q29.07-38.11 61.56-73.32a743.66 743.66 0 0 0 29.17-33.24q3.92-4.74 8.66-8.51a2.32 2.31-40.3 0 0 .28-3.37q-3.41-3.78-4.81-8.78l-.09-9.7q1.13-9.9 5.33-19.23c3.39-7.5 9-10.95 16.44-16.56 4.1-3.09 10.31 2.05 11.72-3.75 3.71-15.31 10.3-30.23 14.19-43.61 11.23-38.7 25.31-75.25 36.21-113.38q3.54-12.39 7.12-24.53c3.75 2.04 6.87 1.61 10.42-.42q1.64-.94 3.54-.13.47.2.86-.12l.45-.37a.25.25 0 0 1 .4.26q-.18.71.25 1.18a3.61 2.24 43 0 1 .94 3.46q-2.48 4.35.42 6.94c-5.5 17.77-10.32 35.95-16.23 53.61q-15.64 46.69-30.11 93.76-2.08 6.78-9.61 20.68-.29.53.27.72c8.75 3.02 14.01 4.75 20.88 10.89a1.58 1.56 66.9 0 0 .95.39q2 .09 3.93-1.24c46.37-32.02 94.02-62.43 141.01-93.64 13.5-8.97 28.12-17.65 41.98-26.88 18.07-12.03 29.06-18.94 45.52-26 2.37-1.02 1.45-3.53-.37-4.64q-10.41-6.3-20.85-12.79 9.8 3.78 18.35 9.67.73.51 3.68 1.61a1.47 1.42-4.5 0 1 .75.62c.59 1.03.75 3.44 1.37 4q.39.36 1.01.37.47.01.89.24c4.3 2.33 12.11 4.47 12.74 10.08a.48.47-7.7 0 0 .54.41l.26-.03q.5-.07.58.42c.27 1.55 1.61 1.84 3.03 1.5 6.41-1.54 14.23-1.76 19.9 2.14q8.7 5.98 17.21 12.18.82.6 1.3-.22.19-.33.46-.06l.26.25a.17.17 0 0 0 .29-.08l.46-1.9q19.16 15.3 39.29 29.19c1.07.74 2.63 1.3 3.83 1.96q.41.22.8-.04c1.34-.92 1.89-2.24 2.6-3.08 15.29-18.27 31.16-36.01 46.47-54.26 18.21-21.7 35.91-40.49 56.8-65.27Z"/>
  <path fill="#0e7ea1" d="M1043.02 394.47q-1.57 1.22-.96 2.93.17.47-.27.7-5.94 3.16-12.5 2.54c-3.9-.37-5.77 2.1-9.41 2.11-1.69.01-3.13-.19-4.78.43-4.35 1.63-8.57 1.12-12.71 2.64-5.45 2-10.75 2.9-16.49 4.91-3.25 1.14-6.62 1.15-9.76 2.43q-5.07 2.07-10.45 3.07c-4.33.81-8.11 2.09-12.6 2.82a.2.2 0 0 0-.04.39l.31.1a.11.11 0 0 1-.04.22c-2.28-.01-4.06-.42-6.33.1-6.15 1.39-14.26 2.62-20.31.3q-.45-.18-.56-.65-.37-1.6.12-2.91 37.5-5.41 74.29-14.25c2.82-.68 7.41-1.02 11.06-2.11q2.58-.76 4.4-.99 13.61-1.71 27.03-4.78Z"/>
  <path fill="#0e7ea1" d="M1146.58 391.58q-1.45-3.31-3.03-9.84c-.5-2.03-2.19-3.24-4.35-3.63q-2.38-.42-3.91-1.05-1.71-20.34 9.41-36.37c12.55-18.08 40.57-15.36 52.42 1.11 8.96 12.46 8.44 26.24.14 38.85-8.98 13.62-28.76 20.05-43.99 13.39q-3.34-1.46-6.69-2.46Z"/>
  <path fill="#0e7ea1" d="M406.03 464.51c-8.71 27.97-14.34 46.42-20.06 71.24q-2.17 9.42-4.9 19.39-9.27 33.76-15.77 68.17-.26 1.38.02 3.89.06.5.57.5c14.8-.06 27.19 1.26 33.61 16.15.62 1.41 1.67 1.9 2.96 2.56l-3.17 5.07q-.14.23-.33.42l-.23.25q-.27.31-.31.78-.38 4.77.91 8.77c-.86 2.08-1.77 3.81-1.3 6.12 1.23 6.06 3.19 9.68 9.72 10.66q14.38 2.17 33.26 3.64-.41 1.82-1.26 1.8-10.57-.21-21.32-.64-6.87-.98-13.86-2.26c-1.9-.35-5.04-.48-6.28.54-3.15 2.61-6.77 3.9-9.88 6.72a.74.72 60.5 0 0-.2.76q1.01 3.12-1.68 4.46a1.34 1.29 1 0 0-.57.53q-1.48 2.56 1 4.47.18 2.1 1.6 3.8a1.51 1.49 24.5 0 1 .34.89c.05 1.62 1.27 2.08 1.88 3.01q6.5 9.89 10.63 21c.47 1.24 1.64 2.36 2.05 3.77q.67 2.27 1.03 2.92 6.87 12.36 12.57 25.29.1.23.52.49.43.28.67.73 3 5.68 5.88 11.42c2.47 4.91 5.69 10.12 8.3 15.34 2.11 4.2 5.16 5.69 5.94 11.07q.07.49-.35.74-.7.44-1.31.39c-5.01-9.25-11.04-18.82-15.56-27.39q-13.05-24.79-25.09-50.1c-4.31-9.08-9.23-17.01-14.39-25.33q-.35-.56-.79-.08c-4.42 4.79-7.72 9.53-14.88 9.33q-7.9-.22-12.17.97-5.02-.69-8.03 2.47-.32.34-.78.43c-2.25.45-4.91 2.13-6.8-.17q-1.69-2.05-4.15-2.52c-3.14-2.65-7.27-4.26-9.81-6.69q-5.08-4.85-6.67-11.73c-.99-4.31-.04-9.39-.91-14.33 1.54-3.31 2.66-6.81 2.03-10.59q-.33-1.95-.39-3.95a.05.04 73.2 0 0-.07-.04q-.12.07-.31.13a.17.17 0 0 1-.2-.24q1.55-3.23-.48-5.6.67-.7.98-2.14c2.45-11.38 10.53-21.68 22.29-24.38 3.59-.83 3.2-5.52 3.6-8.23q.42-2.84 1.11-5.77c5.68-24.12 11.44-48.47 17.71-72.49 5.15-19.71 9.99-39.38 15.87-58.9q1.27-4.21 3.1-7.66-.29 5.1 7.05 2.9c2.47-.74 3.77-2.89 7.08-2.78q.52.02.79-.43c2.31-3.96 1.2-6.71 4.99-10.22q.35-.33.83-.32 1.78.04 3.37 1ZM654.83 506.53l-8.38 6.4c-14.06 1.53-32.19.69-44.88-6.7-3.48-2.02-6.64-5.52-10-8.48q.18-5.15 4.9-8.43 3.19-1.7 7.99-3.58c15.61-6.11 29.7-11.29 46.28-15.27q10.68-2.56 21.87-5.76a.77.77 0 0 1 .94.5c2.06 6.18 3.37 12.85 1.45 19.32-1.99 6.68-5.62 18.8-13.72 19.74q-4.57.53-6.45 2.26Z"/>
  <path fill="#0e7ea1" d="M775.61 320.25c2.56 2.29 4.57 3.8 8.24 4q4.4.23 6.92 4.12c-13.19 17.61-26.34 35.24-40.22 52.27-10.14 12.45-19.74 25.78-30.2 37.53Q713.72 425.62 707 433c-1.99 2.2 1.02 3.57 2.86 3.42q25.65-1.97 51.37-3.07c6.07-.25 12.39-1.54 18.76-1.96 20.71-1.36 41.25-3.62 62-4.5q.38 1.89 1.93 3.63a.84.82-53.9 0 1 .13.9l-2.1 4.64a.62.62 0 0 0 0 .52l3.28 6.85q-15.78 2.84-30.73 3.62l-7.81.54q-9.66 1.18-26.19 2.37c-25.19 1.81-67.52 5.96-101.37 10.05-3.84.46-7.19 2.18-11.08 2.8q-14.72 2.33-28.79 8.04 4.79-4.85 10.24-5.11 6.94-.33 11.06-3.68a.99.91-69.2 0 1 .4-.2l1.21-.27q.42-.09.26-.49l-.45-1.12q-.16-.39-.01-.79 2.71-6.78 3.78-13.36 12.27-11.81 17.96-18.38 21.67-25.03 71.98-85.02 8.27-9.87 19.92-22.18Z"/>
  <path fill="#0e7ea1" d="M897.11 171.09q2.24-.68 3.71 1.84c2.67 4.58 5.32 9.78 9.11 13.06q3.59 3.11 8.55 5.37-6.61-.32-12.13-2.46a1.96 1.94-64.8 0 0-2.41.88q-1.83 3.34-4.82 6.6-8.8 9.62-16.99 19.76-23.69 29.36-48.2 58.04-12.67 14.84-24.02 26.73-3.67 3.84-9.77 9.49-1.89-.05-4.4-.99c-4.13-1.55-4.88-5.42-3.18-9.17q2.7-5.95 7.96-9.79.39-.28.42-.75.07-.83.73-1.52c1.89-1.96 3.9-3.47 5.24-5.69q2.52-4.19 6.45-7.11.42-.31.52-.82l.21-1.09q.1-.49.41-.88l3.97-4.91q.29-.35.36-.81.17-1.17.85-1.69 4.73-3.67 8.07-8.61.29-.43.74-.7 1.64-.99 2.84-2.49.32-.39.78-.58c6.28-2.55 5.83-8.29 9.62-12.02a1.16 1.16 0 0 1 1.97.89q-.05.83.64 1.28.33.2.48-.15.37-.85 1.41-.81a1.09 1.07-71.1 0 0 .92-.46l2.89-4.12q.29-.42.25-.92l-.15-1.87q-.03-.45.35-.69c4.88-3.07 4.95-8.63 9.86-10.75q.52-.22.75-.73l1.27-2.68q.22-.47.65-.19l.38.25q.6.39.47-.32c-.46-2.59 3.54-5.07 5.42-6.3q.37-.24.38-.68c.05-1.9 1.66-3.06 2.35-4.17q1.5-2.4 3.65-4.39.41-.39.33-.95-.22-1.63 1.08-1.99.43-.12.78-.41l4.32-3.63q.39-.33.57-.82 2.2-6.16 4.97-8.44c3.18-2.62 9.06-7.62 4.13-10.53l5.26-6.11Z"/>
  <path fill="#0e7ea1" d="M935.3 195.6q-6.06 12.36-10.29 24.41c-9.85 28.03-19.88 55.82-29.15 84.11q-3.87.15-1.05-5.69a2.07 2.05 57.5 0 0 .2-.93c-.06-2.39 1.41-3.95 1.83-5.84q1.6-7.24 4.15-14.19c.83-2.26.49-4.24-1.17-5.81a.56.55-49.4 0 0-.82.07l-3.71 4.75q-.29.38-.32.85c-.45 7-.8 9.86-4.37 15.92-.81 1.36-.71 3.05-2.43 4.13q-.39.25-.39.72.05 2.74-2.66 2.4-.44-.05-.54.38c-1.11 4.75-2.14 10.4-4.42 14.68q-1.98 3.73-4.25 7.34-.27.44-.79.34-.86-.17-1.58-1.02c5.82-15.62 11.35-30.94 17.64-46.8 9.53-23.98 17.55-48.58 27.51-72.36 1.44-3.45 3.63-6.07 5.8-9.21q4.75-.17 10.81 1.75Z"/>
  <path fill="#0e7ea1" d="m363.8 484.6-39.29 42.41q.11-1.86 1.78-3.51.36-.36.45-.86.15-.83.99-1.05.43-.11.73-.42l2.92-3.01q.08-.09-.03-.14-.1-.06-.31-.05-.12.01-.22.09-.88.78-2.01 1.02-.46.1-.54-.36-.6-3.26-2.03-6.28-.36-.76-.25.08l.1.72q.01.05-.04.03l-.24-.08q-.09-.03-.11-.15-.2-1.29-1.22-1.89-.41-.24-.01-.5c1.94-1.23 1.42-3.03 2.3-4.58q1.52-2.66 4.01-4.33c3.14-2.12 5.05-5.38 8.06-7.79q.74-.58.54.34l-.11.52a.15.15 0 0 0 .17.17l1.47-.29q.53-.11.88-.51 2.08-2.34 4.75-3.82c3.21-1.77 4.87-4.25 8.7-5.25q.49-.13.87-.47 1.47-1.32 3.57-.84a.79.73-52.5 0 0 .54-.09l1.22-.7q.6-.34.88.28.47 1.05 1.48 1.31Z"/>
  <path fill="#0ffeff" d="M1190.75 678.25q-.06-1.09.55-2.3a1.08 1.08 0 0 0-1.28-1.52q-.56.18-1.22-.02 4.53-6.38-4.76-8.04-6.33-7.85-10.63-16.75.39-13.26-.77-25.27 2.76-.29 3.57-2.68c7.28-21.64 23.9-34.67 46.5-38.08 19.19-2.9 36.53 2.34 50.42 16.02 6.46 6.37 10.53 14.35 13.29 23.04 4.39 13.78 1.89 27.98-4.16 40.86-7.16 15.27-18.66 24.33-35.28 27.74-7.29 1.5-13.47 2.88-20.65 1.52q-18.15-3.45-32.46-15.53-.41-.34-.88-.1l-2.24 1.11Z"/>
  <path fill="#0ffeff" d="M439.88 806.27c2.65 1.97 1.53 4.35 3.48 6.86q3.2 9.55 7.18 18.56c2.47 5.59 4.15 11.72 6.71 16.9l5.1 10.32c1.11 2.25 1.43 5.24 3.16 7.64 3.33 4.64 5.23 10.48 8.21 15.49l2.06 3.42q-3.81 1.3-7.1.39-.48-.13-.67-.59l-8.44-20.5c-3.33-8.11-8.27-16.75-11.32-25.05q-2.3-6.25-4.42-12.56c-.36-1.06-1.28-2.05-1.68-3.24q-1.97-5.91-4.14-11.76c-.53-1.41-.87-4.02-.18-5.05q1.02-1.55 2.05-.83Z"/>
  <path fill="#0ffeff" d="M858.1 462.09c-23.77 30.21-47.16 56.97-74.55 84.14q-7.16 7.1-13.38 15.08c-2.14 2.75-5.25 5.32-7.41 8.61a1.03 1.01 49.6 0 0-.07.99q1.03 2.2 3.64 4.02 7.89 5.52 19.96 15.01c15.63 12.28 32.85 22.7 49.35 33.79 13.57 9.13 28.53 17.59 42.41 27.15q-2.43.07-4.54-.88-.42-.19-.57.25l-1.14 3.63q-.59 1.86 1.12 2.79 5.67 3.05 10.75 6.75c3.99 2.9 7.9 4.89 11.97 7.38 2.89 1.76 5.87 4.64 10.08 5.54q1.78.38 2.43 1.93.19.45.61.71l2.81 1.76q.39.25.43.71l.25 2.9c-2.7-2.14-5.34-4.3-8.22-6.19q-21.43-14.1-43.13-27.77c-18.39-11.59-35.92-24.43-54.33-36-17.45-10.96-35.09-23.36-52.12-33.1q-1.47-.84-3.66-1.06a.82.81 19.1 0 0-.77.37c-1.12 1.68-2.22 3.51-3.57 4.99-15.61 17.12-31.94 33.6-47.28 50.94q-15.44 17.45-32.01 33.81c-5.3 5.24-9.55 11.92-15.16 17.29a2.27 2.26 55.2 0 0-.47 2.66c1.55 3.15 6.72 10.53 10.97 10.42 32.96-.82 61.56.84 99 .07 28.15-.59 56.35-.35 84.52-.49l-2.98.23q-.23.02-.03.14.23.13.49.09a1.12.07 1.9 0 1 .78-.02q.73.01.93.73.14.52.68.55 4.36.25 8.71.27c4.65.01 10.45.62 15.75.34 6.26-.34 11.55-.02 17.4.24 4.63.2 10.64-.28 16.03.25 2.37.23 4.53-.16 6.84-.36a1.07 1.07 0 0 1 1.16 1.14l-.46 6.38c-14.84.78-29.5 1.6-44.63 1.75q-57.61.56-115.2 2.18c-28.85.81-57.87.35-86.73.12-3.09-.03-5.97.28-8.81.86q-1.36.27-1.26 1.65.26 3.75 1.14 6.64 7.03 23.1 18.22 44.47c5.38 10.28 10.8 25.47 16.98 37.95q7.16 14.47 13.75 29.22c1.75 3.9 4.89 7.81 6.54 12.36 4.52 12.44 10.75 24.44 16.22 36.51 1.94 4.28 8.01 15.88 12.76 16.98 7.05 1.63 24.18 2.64 30.42-3.24q4.96-4.68 17.34-18.04c20.05-21.66 40.88-42.7 61.4-63.92 8.55-8.83 15.8-17.45 23.82-26.06 3.83-4.12 10.31-11.58 16.01-16.9 6.1-5.69 10.07-12.56 15.94-17.81 5.64-5.03 8.83-11.5 14.32-16.45q2.33-2.09 4.52-4.02 1.46.19 3.42 2.48.34.4.86.44l6.41.48c-5.72 5.88-11.06 11.59-16.09 18.41-6.2 8.41-14.33 17.14-19.8 23.99-2.35 2.95-5.3 5.52-7.79 8.48-9.49 11.3-20 21.64-28.38 31.41q-3.7 4.32-6.67 6.79-.25.21-.24.53.01.25-.12.39c-5.51 5.77-12.35 12.41-18.27 19.04q-13.43 15.04-19.66 20.77-9.43 8.67-12.11 12.41-3.53 4.93-6.97 8.51-5.58 5.81-13.95 13.99c-2.33 2.29-5.26 6.14-8.56 8.67-1.35 1.03-2.03 2.47-3.49 3.5q-.4.29-.63.73c-1.28 2.4-3.41 3.78-5.04 5.3q-7.37 6.88-16.52 11.09a2.43 2.42-16.6 0 0-1.39 2.56l8.11 53.64-3.51-.09-3.32.28q-3.13.26-5.15-2.35-1.51-12.02-2.66-18.03-2.01-10.59-5.89-22.48c-1.69-5.18-2.96-11.47-5.01-17.05q-1.55-4.26-6.16-4.43-39.4-1.5-87.56-2.32c-10.23-.18-20.18.28-30.45-.6q-14.69-1.24-29.45-1.51-.11 0-.12-.1l-.05-.27q-.03-.16-.19-.16-7.89.06-15.69-1.06c-4.42-.64-10.81-1.61-13.61 2.62q-1.39-8.49.67-15.83 26.52.56 52.64.38c15.75-.1 31.9.66 47.88.66 2.09 0 3.86.97 6 .96 19.19-.02 38.26.9 57.47.73 3.37-.03 6.69-.61 5.26-5-1.04-3.2-4.03-11.81-7.53-15.68-1.71-1.89-1.41-4.66-3.34-6.58q-.35-.35-.5-.82c-1.62-5.05-3.04-7.37-4.55-11.15-1.34-3.32-3.29-5.81-4.45-8.99q-1.34-3.68-2.25-5.36-6.73-12.6-11.96-25.88-1.01-2.55-2.65-5.99c-2.61-5.49-4.65-11.29-7.02-16.89q-1.96-4.63-4.13-10.95c-2.44-7.11-5.75-14.4-8.08-20.96q-6.71-18.95-14.48-37.49-1.18-2.8-2.13-5.73-.16-.48-.5-.84-1.01-1.1-1.35-3.41c-1.13-7.79-7.63-15.58-15.15-7.12-12.77 14.38-21.06 31.76-30.37 48.11q-.22.39-.58.65l-.6.44q-.4.3-.58.76c-1.43 3.66-3.99 7.45-6.1 10.9q-16.24 26.49-35.23 60.54a146.44 146.44 0 0 1-7.64 12.29c-1.65 2.35-2.14 5.18-3.99 7.43-3.37 4.13-5.47 9.47-7.61 12.74q-2.46 3.76-2.71 7.31-.73.02-1.22-.57c-.53-.62-.2-1.52-1.36-1.97l-4.3-1.65q-.46-.17-.94-.05-1.75.47-3.05-.29c2.26-4.06 4.09-8.38 6.38-12.21 14.79-24.75 28.56-50.01 43.17-74.84 6.29-10.69 12.25-21.87 18.49-32.22q10.12-16.8 19.56-33.99c1.48-2.68 3.54-8.9-1.29-9.73-3.16-.53-6.28-1.45-9.37-1.71q-15.9-1.33-31.53-3.04-.58-1.55-.31-2.67.11-.47-.37-.51l-9.16-.81q-.51-.05-.51-.56v-.4q0-.56.56-.6c2.73-.18 5.42-1.18 8.14-.85q7.71.94 15.32-.43c5.05-.9 10.13.51 15.47.26 3.45-.16 7.73 1.69 7.97-4.04q6.38.8 12.31.96c4.44.13 7.49-2.83 9.86-6.22l.68 1.26q.16.29.48.21 4.83-1.15 7.06-5.43.2-.38.06-.79-.44-1.33-1.55-2.18c.4-1.2.89-2.41.95-3.7 2.27-45.14 5.57-90.22 8.62-135.31.71-10.59 2.41-21.82 3.52-32.8l8.38-6.4c-2.34 36.46-5.16 72.85-6.41 109.38q-.22 6.54-.78 13.67-1.84 23.34-.86 46.47a.55.55 0 0 0 1.04.24c5.96-11.05 12.31-18.45 22.18-28.63q23.96-24.73 46.71-50.57c10.95-12.44 22.58-23.97 33.92-35.89l.99 1.86a.89.89 0 0 0 1.59-.04q.85-1.84 2.15-3.16 11.79-12.05 23.38-24.3c2.04-2.15 4.12-5.19 6.7-7.57q3.89-3.61 5.33-5.27c5.32-6.14 11.63-11.58 16.68-17.84 5.94-7.37 12.97-15.92 20.09-22.9 7.34-7.19 10.72-12.85 16.28-19.45 1.48-2.76 3.13-6.59 7.18-4.29q1.62.91 3.52 1.15a.87.87 0 0 1 .7.56q.68 1.91 2.88 2.14Z"/>
  <path fill="#0ffeff" d="M935.3 195.6q-6.06-1.92-10.81-1.75-.19-1.58-1.49-1.6-3.17-.05-4.52-.89-4.96-2.26-8.55-5.37c-3.79-3.28-6.44-8.48-9.11-13.06q-1.47-2.52-3.71-1.84 1.03-2.36.02-3.23c-6.18-5.35-9.8-11.68-11.47-19.65-.41-1.96-1.31-3.46-1.47-5.43q-.81-10.34-.18-14.03c1.03-6.03 1.65-14.14 4.32-19.58.93-1.9 1.53-4.09 2.4-5.82 6.7-13.36 18.08-25.39 31.98-30.73 15.44-5.93 34.22-6.3 49.5.5 19.67 8.73 35.71 24.37 37.32 46.99 2.04 28.6-6.42 53.22-31.25 68.91-9.55 6.04-16.93 6.84-28.66 6.24q-7.33-.38-14.32.34Z"/>
  <path fill="#0ffeff" d="M976.99 1087.39q9.97 2.68 17.29 9.85l-2.05 1.17q-1.1.63-.36 1.66c4.84 6.83 9.79 14.35 11.53 22.72 6.28 30.18-6.61 63.52-38.39 73.15-12.59 3.82-28.69-1.58-39.08-8.59-19.44-13.11-19.65-29.28-19.45-50.69q.01-.47-.4-.72-7.05-4.24-14.09-11.68-13.29-14.05-32.32-35.19c-4.52-5.02-8.04-9.55-12.35-14.02q-2.14-2.23-4.07-4.65c-2.08-2.61-5.17-3.54-3.62-8.22a2.07 2.07 0 0 1 3.45-.79q12.49 12.86 25.07 26.34c10.19 10.91 21.06 21.5 31.5 32.37q1.91 1.99 4.04 2.97a1.07 1.06-73.3 0 0 1.5-.81c2.99-20.03 22.66-32.6 41.4-34.84 8.11-.97 16.73.12 25.66 1.1q2.61.29 4.74-1.13ZM556.4 1129.36c.66 2.05.17 6.12 1.02 7.28a1.17 1.13-57.7 0 1 .19.92q-.8 3.68 1.35 6.69c1.97 2.76 3.62 1.57 6.31.29q21.14-10.04 41.92-20.85c3.65-1.9 7.76-3.85 11-6.42q.39-.31.88-.28c3.08.21 6.93-3.67 10.21-4.47q.53-.13.87-.56.88-1.12 2.36-1.14a.61.6-59.5 0 0 .3-.08l47.14-24.33q.45-.23.94-.15l1.83.31-42.9 22.07q-.44.22-.92.13-.73-.14-1.23.23c-2.81 2.06-6.79 3.53-9.88 5.27-18.97 10.65-43.23 23.54-64.82 32.45a1.71 1.7-51.2 0 1-.97.11l-3.92-.68a1.72 1.72 0 0 0-1.99 1.43c-3.24 20.55-7.57 34.54-21.88 50.13-8.8 9.59-22.27 15.08-34.96 16.94-4.38.64-8.52-.53-12.98-.97a.41.41 0 0 1-.01-.81c2.27-.29 4.08-1.75 6.06-2.28q9.06-2.42 17.14-6.94c16.45-9.2 27.25-27.5 31.65-45.48 3.41-13.94.17-31.33-8.59-43.15q-.27-.37-.24-.82.03-.37-.27-.38-.23-.01-.38-.18l-4.8-5.46q-.33-.37-.8-.52-1.15-.35-1.31-1.67-.02-.24-.26-.24H524q-.1 0-.17-.07-3.86-4.03-8.22-7.5c-1.22-.97-2.79-1.23-3.85-1.94-4.13-2.8-9.19-3.69-13.17-5.15-13.46-4.95-28.7.2-41.7 6.7q-1.44-2.88-.26-4.26c3.56-2.45 7.18-5.59 10.58-7.54 8.22-4.7 16.96-7.27 26.28-5.17 9.14 2.05 18.87 4.05 26.76 8.77q6.81 4.08 12.68 9.5.36.33.33.81-.02.2-.01.39.01.53.48.78 2.74 1.42 4.73 3.8.37.44.92.58 1.27.31 1.65 1.53.13.43.48.71c5.75 4.56 9.46 14.88 12.53 21.49a1 1 0 0 0 .73.56q.83.13 1.63-.38Z"/>
  <path fill="#0ffeff" d="m586.61 471.67 5.31 15.73a1.05 1.04 89.4 0 0 .67.66q1.46.45 3.48.2l-.11.36q-.09.26.13.42l.38.28q-4.72 3.28-4.9 8.43-6.14 9.77-8.87 12.21-10.12 9.02-19.41 18.87c-14.54 15.42-30.87 28.24-46.45 42.51-3.95 3.63-8.83 6.72-12.5 9.87q-5.35 4.57-10.84 8.96c-1.83 1.47-5.15 4.51-7.98 6.36q-5.19 3.39-6.33 4.27-26.05 20.03-51.25 41.14-9.11 7.63-26.23 18.4l.12-7.5a3.03 3.01 66.3 0 1 .75-1.94l3.05-3.52q.3-.34.7-.54 3.86-1.93 6.55-5.4.29-.36-.01-.71-.59-.71-1.43-1.12 37.2-30.79 52.52-42.4 16.02-12.14 29.03-22.98 8.73-7.27 16.48-12.79 27.74-19.76 53.27-42.31c1.92-1.69 4.58-3.12 6.77-4.92q.47-.38.06-.83c-2.16-2.3-3.46-4.7-5.55-7.68-3.43-4.9-2.27-12.21-1.44-18.96q.06-.49.41-.85l4.22-4.44a.51.51 0 0 1 .32-.16l18.18-2.32a1.82 1.82 0 0 0 1.57-2.03l-.67-5.27Z"/>
  <path fill="#395067" d="m742.06 268.7-.46 1.9a.17.17 0 0 1-.29.08l-.26-.25q-.27-.27-.46.06-.48.82-1.3.22-8.51-6.2-17.21-12.18c-5.67-3.9-13.49-3.68-19.9-2.14-1.42.34-2.76.05-3.03-1.5q-.08-.49-.58-.42l-.26.03a.48.47-7.7 0 1-.54-.41c-.63-5.61-8.44-7.75-12.74-10.08q-.42-.23-.89-.24-.62-.01-1.01-.37c-.62-.56-.78-2.97-1.37-4a1.47 1.42-4.5 0 0-.75-.62q-2.95-1.1-3.68-1.61-8.55-5.89-18.35-9.67c-32.69-19.15-62.71-40.6-97.27-58.26-7.84-4.01-19.78-8.87-29.34-14.25a.68.68 0 0 0-1.01.5c-2.32 16.64-23.73 25.69-38.96 25.74a1.52 1.51 8.6 0 0-1.45 1.06l-9.34 30.35q-2.9-2.59-.42-6.94a3.61 2.24 43 0 0-.94-3.46q-.43-.47-.25-1.18a.25.25 0 0 0-.4-.26l-.45.37q-.39.32-.86.12-1.9-.81-3.54.13c-3.55 2.03-6.67 2.46-10.42.42l9.22-24.92a1.95 1.95 0 0 0-1.32-2.57c-2.88-.77-6.21-1.58-8.69-3.43-27.84-20.86-22.42-61.18 5.5-78.39 19.18-11.82 43.92-2.94 58.18 12.36 8.17 8.75 10.77 18.34 8.28 29.86q-.53 2.46 1.53 3.97c13.13 9.63 27.85 17.15 42.16 24.84 16.13 8.67 41.68 25.56 67.89 40.97 16.45 9.68 31.92 20.91 48.1 31.04 2.28 1.43 5.65 2.76 8.2 4.55q19.73 13.79 38.68 28.58Z"/>
  <path fill="#48708f" d="M257.18 403.87c-.94 7.77-1.44 15.44-2.55 22.81q-2.81 18.62-4.68 37.36c-1.33 13.34-3.44 28.41-4.41 42.72q-.9 13.23-1.68 19.93c-1.33 11.49-3.53 22.46-2.52 34.58a1.82 1.77 25.8 0 0 .32.88q4.29 5.92 8.62 11.74c2.74 3.67 4.74 7.92 7.08 12q.32.56.69.03l9.31-13.24q.17.43.11.93-.03.26.21.33l.57.18q.66.21.31.81l-.21.35q-.16.27.11.43l.3.18q.37.22.06.51l-2.18 2.06a.55.55 0 0 0 .68.86l6.9-4.6q.52-.34 1.11-.16c3.63 1.07 2.57-3.23 5.71-2.77l-3.88 4.29q-.33.37-.81.48c-5.04 1.24-18.1 6.64-10.14 13.25q2.06 3.91 4.31 7.91c5.31 9.43 9.32 24.1 6.05 34.72-.72 2.33-2.96 5.86-.38 7.86 7.62 5.91 17.46 8.97 26.54 12 3.69 1.23 8.2 1.34 12.3 3.09q.48.21.92-.08.77-.49 1.31-1.38 2.03 2.37.48 5.6a.17.17 0 0 0 .2.24q.19-.06.31-.13a.05.04 73.2 0 1 .07.04q.06 2 .39 3.95c.63 3.78-.49 7.28-2.03 10.59l-44.01-18.1a1.39 1.39 0 0 0-1.64.44c-6.79 8.86-12.76 16.44-23.73 21.47q-27.46 12.57-55.23.66c-16.47-7.07-26.02-26.39-29.23-43.01-1.99-10.27 2.05-25.54 7.01-35.15 10.26-19.89 33.92-32.96 55.96-33.39a1.3 1.3 0 0 0 1.28-1.27q.12-4.55 1.19-9.12 1.08-4.63 3.13-19.47c2.05-14.78 3.4-32.32 4.97-45.77 1.2-10.22 1.64-20.43 2.95-29.96 2.55-18.49 4.46-36.92 7.68-55.33l.44.73q.26.45.3-.07.01-.19.08-.38.06-.13.2-.09 3.1.9 3.36-2.2.05-.55.59-.45l1.7.32q.44.09.59-.33l.34-.91q.2-.55.69-.23l1.88 1.26Z"/>
  <path fill="#395067" d="m257.18 403.87-1.88-1.26q-.49-.32-.69.23l-.34.91q-.15.42-.59.33l-1.7-.32q-.54-.1-.59.45-.26 3.1-3.36 2.2-.14-.04-.2.09-.07.19-.08.38-.04.52-.3.07l-.44-.73c1.99-7.04 1.31-6.52-4.29-10.07-11.4-7.24-10.81-25.64-7.9-36.89 3.92-15.11 18.63-24.14 33.81-23.2q21.61 1.33 31.21 20.84c9.53 19.36.1 43.63-22.61 46.89q-2.87.42-10.01.18-5.02-.17-10.04-.1Z"/>
</svg>
